<?xml version="1.0" encoding="UTF-8" standalone="no"?><svg xmlns="http://www.w3.org/2000/svg" xmlns:xlink="http://www.w3.org/1999/xlink" contentScriptType="application/ecmascript" contentStyleType="text/css" height="880px" preserveAspectRatio="none" style="width:377px;height:880px;background:#FFFFFF;" version="1.1" viewBox="0 0 377 880" width="377px" zoomAndPan="magnify"><defs/><g><rect fill="none" height="26.2969" style="stroke:none;stroke-width:1.0;" width="195" x="89.5" y="15"/><text fill="#000000" font-family="sans-serif" font-size="14" font-weight="bold" lengthAdjust="spacing" textLength="185" x="94.5" y="32.9951">Auditing Process (WIP)</text><ellipse cx="175" cy="57.2969" fill="#222222" rx="10" ry="10" style="stroke:none;stroke-width:1.0;"/><rect fill="#FFFFFF" height="33.9688" rx="12.5" ry="12.5" style="stroke:#222222;stroke-width:1.5;" width="239" x="55.5" y="87.2969"/><text fill="#000000" font-family="sans" font-size="12" lengthAdjust="spacing" textLength="41" x="65.5" y="108.4355">Project</text><text fill="#000000" font-family="sans" font-size="12" font-weight="bold" lengthAdjust="spacing" textLength="58" x="110.5" y="108.4355">authors</text><text fill="#000000" font-family="sans" font-size="12" lengthAdjust="spacing" textLength="51" x="172.5" y="108.4355">submit a</text><text fill="#000000" font-family="sans" font-size="12" lengthAdjust="spacing" text-decoration="underline" textLength="57" x="227.5" y="108.4355">Self Audit</text><rect fill="#FFFFFF" height="47.9375" rx="12.5" ry="12.5" style="stroke:#222222;stroke-width:1.5;" width="304" x="23" y="185.2656"/><text fill="#000000" font-family="sans" font-size="12" lengthAdjust="spacing" textLength="41" x="33" y="206.4043">Project</text><text fill="#000000" font-family="sans" font-size="12" font-weight="bold" lengthAdjust="spacing" textLength="58" x="78" y="206.4043">authors</text><text fill="#000000" font-family="sans" font-size="12" lengthAdjust="spacing" textLength="177" x="140" y="206.4043">perform the necessary steps</text><text fill="#000000" font-family="sans" font-size="12" lengthAdjust="spacing" textLength="96" x="33" y="220.373">to complete the</text><text fill="#000000" font-family="sans" font-size="12" lengthAdjust="spacing" text-decoration="underline" textLength="57" x="133" y="220.373">Self Audit</text><rect fill="#FFFFFF" height="47.9375" rx="12.5" ry="12.5" style="stroke:#222222;stroke-width:1.5;" width="266" x="42" y="260.7031"/><text fill="#000000" font-family="sans" font-size="12" lengthAdjust="spacing" textLength="41" x="52" y="281.8418">Project</text><text fill="#000000" font-family="sans" font-size="12" font-weight="bold" lengthAdjust="spacing" textLength="58" x="97" y="281.8418">authors</text><text fill="#000000" font-family="sans" font-size="12" lengthAdjust="spacing" textLength="47" x="159" y="281.8418">request</text><text fill="#000000" font-family="sans" font-size="12" font-weight="bold" lengthAdjust="spacing" textLength="88" x="210" y="281.8418">codeowners</text><text fill="#000000" font-family="sans" font-size="12" lengthAdjust="spacing" textLength="101" x="52" y="295.8105">for review of the</text><text fill="#000000" font-family="sans" font-size="12" lengthAdjust="spacing" text-decoration="underline" textLength="57" x="157" y="295.8105">Self Audit</text><polygon fill="#FEFECE" points="175,141.2656,187,153.2656,175,165.2656,163,153.2656,175,141.2656" style="stroke:#222222;stroke-width:1.5;"/><polygon fill="#FEFECE" points="113,328.6406,237,328.6406,249,340.6406,237,352.6406,113,352.6406,101,340.6406,113,328.6406" style="stroke:#222222;stroke-width:1.5;"/><text fill="#000000" font-family="sans" font-size="11" lengthAdjust="spacing" text-decoration="underline" textLength="56" x="113" y="344.4487">Self Audit</text><text fill="#000000" font-family="sans" font-size="11" lengthAdjust="spacing" textLength="64" x="173" y="344.4487">approved ?</text><text fill="#000000" font-family="sans" font-size="11" lengthAdjust="spacing" textLength="14" x="249" y="338.0464">no</text><rect fill="#FFFFFF" height="33.9688" rx="12.5" ry="12.5" style="stroke:#222222;stroke-width:1.5;" width="311" x="19.5" y="394.0396"/><text fill="#000000" font-family="sans" font-size="12" lengthAdjust="spacing" textLength="41" x="29.5" y="415.1782">Project</text><text fill="#000000" font-family="sans" font-size="12" font-weight="bold" lengthAdjust="spacing" textLength="58" x="74.5" y="415.1782">authors</text><text fill="#000000" font-family="sans" font-size="12" lengthAdjust="spacing" textLength="51" x="136.5" y="415.1782">submit a</text><text fill="#000000" font-family="sans" font-size="12" lengthAdjust="spacing" text-decoration="underline" textLength="78" x="191.5" y="415.1782">Internal Audit</text><text fill="#000000" font-family="sans" font-size="12" lengthAdjust="spacing" textLength="47" x="273.5" y="415.1782">request</text><rect fill="#FFFFFF" height="33.9688" rx="12.5" ry="12.5" style="stroke:#222222;stroke-width:1.5;" width="328" x="11" y="492.0083"/><text fill="#000000" font-family="sans" font-size="12" lengthAdjust="spacing" textLength="41" x="21" y="513.147">Project</text><text fill="#000000" font-family="sans" font-size="12" font-weight="bold" lengthAdjust="spacing" textLength="58" x="66" y="513.147">authors</text><text fill="#000000" font-family="sans" font-size="12" lengthAdjust="spacing" textLength="119" x="128" y="513.147">fill the details of the</text><text fill="#000000" font-family="sans" font-size="12" lengthAdjust="spacing" text-decoration="underline" textLength="78" x="251" y="513.147">Internal Audit</text><rect fill="#FFFFFF" height="33.9688" rx="12.5" ry="12.5" style="stroke:#222222;stroke-width:1.5;" width="309" x="20.5" y="553.4771"/><text fill="#000000" font-family="sans" font-size="12" font-weight="bold" lengthAdjust="spacing" textLength="88" x="30.5" y="574.6157">codeowners</text><text fill="#000000" font-family="sans" font-size="12" lengthAdjust="spacing" textLength="64" x="122.5" y="574.6157">review the</text><text fill="#000000" font-family="sans" font-size="12" lengthAdjust="spacing" text-decoration="underline" textLength="78" x="190.5" y="574.6157">Internal Audit</text><text fill="#000000" font-family="sans" font-size="12" lengthAdjust="spacing" textLength="47" x="272.5" y="574.6157">request</text><polygon fill="#FEFECE" points="175,448.0083,187,460.0083,175,472.0083,163,460.0083,175,448.0083" style="stroke:#222222;stroke-width:1.5;"/><polygon fill="#FEFECE" points="72,607.4458,278,607.4458,290,619.4458,278,631.4458,72,631.4458,60,619.4458,72,607.4458" style="stroke:#222222;stroke-width:1.5;"/><text fill="#000000" font-family="sans" font-size="11" lengthAdjust="spacing" text-decoration="underline" textLength="76" x="72" y="623.2539">Internal Audit</text><text fill="#000000" font-family="sans" font-size="11" lengthAdjust="spacing" textLength="126" x="152" y="623.2539">request well formed ?</text><text fill="#000000" font-family="sans" font-size="11" lengthAdjust="spacing" textLength="14" x="290" y="616.8516">no</text><rect fill="#FFFFFF" height="47.9375" rx="12.5" ry="12.5" style="stroke:#222222;stroke-width:1.5;" width="284" x="33" y="672.8447"/><text fill="#000000" font-family="sans" font-size="12" font-weight="bold" lengthAdjust="spacing" textLength="88" x="43" y="693.9834">codeowners</text><text fill="#000000" font-family="sans" font-size="12" lengthAdjust="spacing" textLength="44" x="135" y="693.9834">identify</text><text fill="#000000" font-family="sans" font-size="12" font-weight="bold" lengthAdjust="spacing" textLength="124" x="183" y="693.9834">internal auditors</text><text fill="#000000" font-family="sans" font-size="12" lengthAdjust="spacing" textLength="40" x="43" y="707.9521">for the</text><text fill="#000000" font-family="sans" font-size="12" lengthAdjust="spacing" text-decoration="underline" textLength="78" x="87" y="707.9521">Internal Audit</text><text fill="#000000" font-family="sans" font-size="12" lengthAdjust="spacing" textLength="47" x="169" y="707.9521">request</text><rect fill="#FFFFFF" height="47.9375" rx="12.5" ry="12.5" style="stroke:#222222;stroke-width:1.5;" width="279" x="35.5" y="740.7822"/><text fill="#000000" font-family="sans" font-size="12" font-weight="bold" lengthAdjust="spacing" textLength="124" x="45.5" y="761.9209">internal auditors</text><text fill="#000000" font-family="sans" font-size="12" lengthAdjust="spacing" textLength="131" x="173.5" y="761.9209">perform the audit and</text><text fill="#000000" font-family="sans" font-size="12" lengthAdjust="spacing" textLength="58" x="45.5" y="775.8896">submit an</text><text fill="#000000" font-family="sans" font-size="12" lengthAdjust="spacing" text-decoration="underline" textLength="30" x="107.5" y="775.8896">Audit</text><rect fill="#FFFFFF" height="47.9375" rx="12.5" ry="12.5" style="stroke:#222222;stroke-width:1.5;" width="315" x="17.5" y="808.7197"/><text fill="#000000" font-family="sans" font-size="12" lengthAdjust="spacing" textLength="0" x="31.5" y="829.8584"/><text fill="#000000" font-family="sans" font-size="12" font-weight="bold" lengthAdjust="spacing" textLength="88" x="31.5" y="829.8584">codeowners</text><text fill="#000000" font-family="sans" font-size="12" lengthAdjust="spacing" textLength="199" x="123.5" y="829.8584">summarize the result of the audit</text><text fill="#000000" font-family="sans" font-size="12" lengthAdjust="spacing" textLength="229" x="27.5" y="843.8271">and discuss further steps with project</text><text fill="#000000" font-family="sans" font-size="12" font-weight="bold" lengthAdjust="spacing" textLength="58" x="260.5" y="843.8271">authors</text><line style="stroke:#222222;stroke-width:1.5;" x1="175" x2="175" y1="67.2969" y2="87.2969"/><polygon fill="#222222" points="171,77.2969,175,87.2969,179,77.2969,175,81.2969" style="stroke:#222222;stroke-width:1.0;"/><line style="stroke:#222222;stroke-width:1.5;" x1="175" x2="175" y1="233.2031" y2="260.7031"/><polygon fill="#222222" points="171,250.7031,175,260.7031,179,250.7031,175,254.7031" style="stroke:#222222;stroke-width:1.0;"/><line style="stroke:#222222;stroke-width:1.5;" x1="175" x2="175" y1="165.2656" y2="185.2656"/><polygon fill="#222222" points="171,175.2656,175,185.2656,179,175.2656,175,179.2656" style="stroke:#222222;stroke-width:1.0;"/><line style="stroke:#222222;stroke-width:1.5;" x1="249" x2="339" y1="340.6406" y2="340.6406"/><polygon fill="#222222" points="335,253.2031,339,243.2031,343,253.2031,339,249.2031" style="stroke:#222222;stroke-width:1.5;"/><line style="stroke:#222222;stroke-width:1.5;" x1="339" x2="339" y1="153.2656" y2="340.6406"/><line style="stroke:#222222;stroke-width:1.5;" x1="339" x2="187" y1="153.2656" y2="153.2656"/><polygon fill="#222222" points="197,149.2656,187,153.2656,197,157.2656,193,153.2656" style="stroke:#222222;stroke-width:1.0;"/><line style="stroke:#222222;stroke-width:1.5;" x1="175" x2="175" y1="308.6406" y2="328.6406"/><polygon fill="#222222" points="171,318.6406,175,328.6406,179,318.6406,175,322.6406" style="stroke:#222222;stroke-width:1.0;"/><line style="stroke:#222222;stroke-width:1.5;" x1="175" x2="175" y1="121.2656" y2="141.2656"/><polygon fill="#222222" points="171,131.2656,175,141.2656,179,131.2656,175,135.2656" style="stroke:#222222;stroke-width:1.0;"/><line style="stroke:#222222;stroke-width:1.5;" x1="175" x2="175" y1="352.6406" y2="394.0396"/><polygon fill="#222222" points="171,384.0396,175,394.0396,179,384.0396,175,388.0396" style="stroke:#222222;stroke-width:1.0;"/><text fill="#000000" font-family="sans" font-size="11" lengthAdjust="spacing" textLength="21" x="179" y="373.9453">yes</text><line style="stroke:#222222;stroke-width:1.5;" x1="175" x2="175" y1="525.9771" y2="553.4771"/><polygon fill="#222222" points="171,543.4771,175,553.4771,179,543.4771,175,547.4771" style="stroke:#222222;stroke-width:1.0;"/><line style="stroke:#222222;stroke-width:1.5;" x1="175" x2="175" y1="472.0083" y2="492.0083"/><polygon fill="#222222" points="171,482.0083,175,492.0083,179,482.0083,175,486.0083" style="stroke:#222222;stroke-width:1.0;"/><line style="stroke:#222222;stroke-width:1.5;" x1="290" x2="351" y1="619.4458" y2="619.4458"/><polygon fill="#222222" points="347,545.9771,351,535.9771,355,545.9771,351,541.9771" style="stroke:#222222;stroke-width:1.5;"/><line style="stroke:#222222;stroke-width:1.5;" x1="351" x2="351" y1="460.0083" y2="619.4458"/><line style="stroke:#222222;stroke-width:1.5;" x1="351" x2="187" y1="460.0083" y2="460.0083"/><polygon fill="#222222" points="197,456.0083,187,460.0083,197,464.0083,193,460.0083" style="stroke:#222222;stroke-width:1.0;"/><line style="stroke:#222222;stroke-width:1.5;" x1="175" x2="175" y1="587.4458" y2="607.4458"/><polygon fill="#222222" points="171,597.4458,175,607.4458,179,597.4458,175,601.4458" style="stroke:#222222;stroke-width:1.0;"/><line style="stroke:#222222;stroke-width:1.5;" x1="175" x2="175" y1="428.0083" y2="448.0083"/><polygon fill="#222222" points="171,438.0083,175,448.0083,179,438.0083,175,442.0083" style="stroke:#222222;stroke-width:1.0;"/><line style="stroke:#222222;stroke-width:1.5;" x1="175" x2="175" y1="631.4458" y2="672.8447"/><polygon fill="#222222" points="171,662.8447,175,672.8447,179,662.8447,175,666.8447" style="stroke:#222222;stroke-width:1.0;"/><text fill="#000000" font-family="sans" font-size="11" lengthAdjust="spacing" textLength="21" x="179" y="652.7505">yes</text><line style="stroke:#222222;stroke-width:1.5;" x1="175" x2="175" y1="720.7822" y2="740.7822"/><polygon fill="#222222" points="171,730.7822,175,740.7822,179,730.7822,175,734.7822" style="stroke:#222222;stroke-width:1.0;"/><line style="stroke:#222222;stroke-width:1.5;" x1="175" x2="175" y1="788.7197" y2="808.7197"/><polygon fill="#222222" points="171,798.7197,175,808.7197,179,798.7197,175,802.7197" style="stroke:#222222;stroke-width:1.0;"/><rect fill="none" height="11.6406" style="stroke:none;stroke-width:1.0;" width="296" x="39" y="855.6572"/><text fill="#888888" font-family="sans-serif" font-size="10" lengthAdjust="spacing" textLength="296" x="39" y="864.9395">Tendermint Audits: https://github.com/noandrea/audits</text><!--MD5=[f3a5664f30ff4aa1a57c60a3fd89efa0]
@startuml
title Auditing Process (WIP)
footer Tendermint Audits: https://github.com/noandrea/audits

<style>
activityDiagram {
  LineColor #222
  FontName sans
}
</style>
skinparam monochrome false
skinparam shadowing false

start
#white:Project **authors** submit a __Self Audit__;

repeat
    #white:Project **authors** perform the necessary steps
    to complete the __Self Audit__;
    #white:Project **authors** request **codeowners**
    for review of the __Self Audit__;
repeat while (__Self Audit__ approved ?) is (no)
-> yes;

#white:Project **authors** submit a __Internal Audit__ request;
repeat
    #white:Project **authors** fill the details of the __Internal Audit__;
    #white:**codeowners** review the __Internal Audit__ request;
repeat while (__Internal Audit__ request well formed ?) is (no)
-> yes;

#white:**codeowners** identify **internal auditors**
for the __Internal Audit__ request;

#white:**internal auditors** perform the audit and
submit an __Audit__;

#white: **codeowners** summarize the result of the audit
and discuss further steps with project **authors**;
@enduml

PlantUML version 1.2021.14beta6(Unknown compile time)
(GPL source distribution)
Java Runtime: Java(TM) SE Runtime Environment
JVM: Java HotSpot(TM) 64-Bit Server VM
Default Encoding: UTF-8
Language: en
Country: US
--></g></svg>